<svg xmlns="http://www.w3.org/2000/svg" xml:space="preserve" width="80.1737mm" height="28.9158mm"
    style="shape-rendering:geometricPrecision; text-rendering:geometricPrecision; image-rendering:optimizeQuality; fill-rule:evenodd; clip-rule:evenodd"
    viewBox="0 0 3282.14 1183.75">
 <defs>
  <style type="text/css">
    <![CDATA[
      .fil0 {fill:url(#id0)}
    ]]>
  </style>
  <linearGradient id="id0" gradientUnits="userSpaceOnUse" x1="1641.04" y1="1183.73" x2="1641.04" y2="-0.01">
   <stop offset="0" style="stop-opacity:1; stop-color:#A8518A"/>
   <stop offset="0.25098" style="stop-opacity:1; stop-color:#A8518A"/>
   <stop offset="0.6" style="stop-opacity:1; stop-color:#ED2790"/>
   <stop offset="1" style="stop-opacity:1; stop-color:#ED2790"/>
  </linearGradient>
 </defs>
 <g id="Layer_1">
  <path class="fil0" d="M2927.73 879.65c-12.16,6.1 -24.37,12.11 -36.59,18.09 -38.82,19.3 -77.28,40.02 -113.99,63.12 -28.08,17.67 -55.97,37.18 -80.75,59.31 -28.25,25.23 -62.45,62.96 -62.45,103.42 0,25.82 14.67,33.93 39.05,33.93 45.98,0 85.21,-30.89 114.72,-63.28 24.8,-27.22 46.88,-59.17 66.82,-90.06 26.05,-40.36 50.16,-82.29 73.18,-124.52zm-2170.48 -518.87c5.45,-0.42 10.52,-0.38 14.15,-0.33 22.07,0 46.55,4.9 68.17,10.08 35.24,-11.38 65.25,-30.76 87.75,-60.5 22.43,-29.65 32.94,-63.31 32.94,-100.45 0,-35.53 -13.4,-65.6 -36.19,-91.79 -43.65,34.83 -81.34,78.33 -113.89,123.38 -24.43,33.81 -46.73,69.52 -67.31,106.16 -8.48,15.11 -16.68,30.38 -24.62,45.78 -7.65,14.84 -15.06,29.77 -22.25,44.74 -20.2,42.05 -41.86,83.85 -66.15,123.71 -17.97,29.49 -38.06,59.2 -61.11,84.99 -43.42,48.53 -102.23,85.7 -160.09,114.54l-0.04 0.02 -0.04 0.02c-66.95,32.66 -143.95,59.81 -219.28,59.81 -47.52,0 -94.25,-9.77 -133.87,-37.09 -33.66,-23.21 -55.43,-54.61 -55.43,-96.3 0,-21.1 6.33,-40.26 19.61,-56.68l0.05 -0.05 0.05 -0.06c12.72,-15.26 28.82,-24.63 48.94,-24.63 30.53,0 44.61,19.28 44.61,48.55 0,14.76 -4.46,28.28 -14.05,39.55 -9.47,11.12 -21.63,17.08 -36.28,17.08 -13.81,0 -23.99,-4.33 -30.33,-12.21 3.35,26.38 19.54,46.1 42.26,61.39 33.42,22.49 73.56,30.1 113.27,30.1 86.05,0 159.35,-33.42 222.63,-91.06l0.02 -0.01c27.88,-25.28 53.62,-52.94 76.14,-83.11 7.38,-9.9 14.48,-20.07 21.51,-30.22 10.88,-15.7 21.59,-31.52 32.24,-47.38 32.5,-48.38 64.47,-97.13 96.31,-145.94l0.03 -0.04 0.02 -0.04c41.31,-61.97 88.23,-120.36 138.04,-175.68l0.01 -0.01c23.8,-26.34 48.39,-52.25 74.25,-76.58 16.31,-15.34 33.51,-30.49 51.61,-43.92 -69.64,-52.79 -163.46,-66.8 -248.64,-66.8 -162.52,0 -300.64,59.74 -416.69,173.12 -69.47,67.94 -144.82,162.57 -144.82,264.96 0,37.07 10.64,70.36 38.49,95.84 29.27,26.77 67.27,35.53 106.07,35.53 89.06,0 169.48,-51.21 233.5,-108.82 58.5,-52.64 120.52,-126.13 120.52,-209.38 0,-51.57 -25.51,-74.29 -76.46,-74.29 -67.92,0 -131.43,47.73 -177.92,92.83 -45.46,44.09 -95.39,105.99 -95.39,172.81 0,11.44 3.53,21.04 11.3,29.47 6.91,7.5 15.1,11.94 25.39,11.94l0.85 0 0.83 0.15c7.47,1.36 17.54,4.3 17.54,13.76 0,2.02 -0.43,4 -1.3,5.83 -3.49,7.29 -11.81,8.85 -19.1,8.85 -22.61,0 -40.51,-11.09 -53.93,-28.9 -14.95,-19.57 -21,-42.65 -21,-67.09 0,-74.17 48.26,-135.28 101.88,-181.51 59.18,-51.02 128.87,-87.32 208.5,-87.32 67.53,0 108.59,31.22 108.59,101.11 0,93.6 -63.36,173.36 -129.47,233.14 -70.57,63.96 -157.23,116.6 -255.32,116.6 -51.19,0 -98.31,-14.31 -134.98,-50.98 -36.8,-36.79 -50.98,-84.25 -50.98,-135.57 0,-131.53 87.06,-231.58 188.1,-305.42 123.03,-89.9 260.6,-136.45 413.02,-136.45 100.56,0 199.06,20.17 284.92,73.91 61.81,-37.74 130.81,-64.06 204.07,-64.06 49.46,0 95.04,13.68 130.78,48.75l0.02 0.02c35.27,34.83 49.84,79.21 49.84,128.33 0,22.75 -3.35,45.63 -8.29,67.79 -2.2,9.63 -4.61,19.43 -8.54,28.53l-29.78 -8.73c9.42,-28.29 15.07,-54.03 15.07,-84.05 0,-41.56 -10.98,-80.12 -40.61,-110.15l-0.02 -0.02c-29.07,-29.68 -66.21,-41.28 -107.28,-41.28 -64.29,0 -124.86,22.09 -179.58,54.37 43.43,35.44 73.6,80.86 73.6,139.21 0,95.72 -68.51,138.57 -150.34,156.32 73.61,34.22 119.24,91.7 119.24,180.5 0,73.25 -33.16,132.66 -87.64,180.47 -58.07,51.16 -126.26,76.75 -203.64,76.75 -33.57,0 -66.64,-7.63 -92.38,-30.26 -24.88,-21.47 -35.31,-50.35 -35.31,-82.86 0,-59.2 30.94,-110.41 70.25,-152.47 37.65,-40.27 85.84,-75.42 143.27,-75.42 26.31,0 49.93,7.89 68.8,26.53l0.04 0.04c18.67,18.67 26.96,41.76 26.96,68.05 0,19.99 -6.94,41.37 -14.49,59.68l-0.01 0.02c-3.7,8.91 -8.1,18.69 -13.57,26.67 -4.09,5.97 -9.87,12.38 -17.73,12.38 -8.54,0 -15.68,-4.76 -15.68,-13.91 0,-3.91 1.65,-7.9 3.46,-11.3l0.24 -0.45 0.29 -0.42c14.3,-20.96 28.29,-47.63 28.29,-73.66 0,-18.07 -5.18,-33.72 -18.32,-46.34 -13.8,-12.82 -30.87,-17.52 -49.47,-17.52 -48.58,0 -89.34,31.04 -120.62,65.43 -33.84,37.37 -59.77,82.17 -59.77,133.86 0,22.11 7.15,41.21 23.12,56.65l0.04 0.04c16.13,15.76 35.54,22.72 58.02,22.72 63.73,0 114.43,-35.47 154.7,-82.37 44.94,-52.33 71.17,-112.51 71.17,-182.08 0,-61.79 -30.25,-103.94 -84.42,-131.12l-30.66 3.61c-9.59,1.22 -19.24,1.84 -28.9,1.84 -6.6,0 -16.93,-0.07 -26.73,-1.85 -38.57,-7 -24.04,-39.13 5.29,-41.38zm603.09 363.34c-24.6,29.12 -74.68,85.21 -116.61,85.21 -20.21,0 -36.99,-8.52 -50.19,-23.7l-0.02 -0.03 -0.02 -0.03c-13.46,-15.74 -19.77,-34.64 -19.77,-55.31 0,-2.33 0.15,-4.73 0.43,-7.16 -6.24,7.65 -12.56,15.23 -18.98,22.72 -10.22,11.92 -21.05,24.26 -32.56,34.96 -15.45,14.93 -35.31,28.55 -57.63,28.55 -19.91,0 -36.77,-8.08 -49.78,-23.09 -13.61,-15.47 -19.63,-34.29 -19.63,-54.79 0,-28.6 12.94,-57.44 27.3,-81.56l107.65 -180.97 91.88 0 -145.86 240.23c-9.89,16.29 -19.51,36.7 -19.51,56.16 0,4.32 0.54,11.31 4.16,14.35 2.2,1.85 5.55,2.26 8.31,2.26 23.15,0 55.26,-35.19 68.91,-51.03 18.19,-21.12 34.82,-44.05 50.49,-67.07 20.96,-30.78 40.61,-62.57 59.54,-94.62l59.22 -100.28 92.98 0 -101.09 164.68c-14.48,23.58 -64.36,105.31 -64.36,132.9 0,10.73 3.25,15.43 14.25,15.43 17.53,0 42.33,-22.37 54.01,-33.68 14.36,-13.9 27.72,-29.17 40.39,-44.61 16.75,-20.4 32.62,-41.61 47.97,-63.06l17.89 -25.05c6.95,-8.53 14.21,-17.09 31.2,-20l62.02 -103.91 -59.75 0 18.07 -27.41 57.44 0 67.52 -111.82 88.1 0 -66.34 111.82 74.92 0 -14.95 27.41 -75.59 0 -126.06 215.1c-9.15,15.45 -22.31,40.15 -22.31,58.61 0,12.58 5.49,16.61 17.79,16.61 10.28,0 23.69,-6.35 36.18,-14.4 34.91,-22.51 63.42,-58.09 90.66,-88.83 17.05,-19.24 33.44,-38.99 47.45,-58.34 6.36,-8.78 13.89,-14.76 29.71,-18.36l65.89 -110.38 -56.16 0 14.48 -27.41 57.44 0 67.52 -111.82 88.09 0 -66.34 111.82 74.92 0 -14.95 27.41 -75.59 0 -126.05 215.1c-9.15,15.45 -22.31,40.15 -22.31,58.61 0,12.58 5.49,16.61 17.79,16.61 20.57,0 50.6,-29.31 63.73,-42.89 17.11,-17.69 32.98,-36.96 48.07,-56.38 16.41,-21.14 32.12,-42.89 47.39,-64.9 -0.22,0.38 -0.41,0.74 -0.58,1.11 24.12,-41.85 65.21,-74.69 107.36,-100.01 13.76,-8.27 27.9,-15.97 42.28,-23.08 25.84,-12.78 55.27,-24.7 83.43,-29.3 14,-2.28 28.93,-3.37 42.71,0.71 14.67,4.35 28.57,14.68 35.41,28.57 5.7,11.59 5.75,25.09 2.72,37.43 -5.18,21.04 -19.92,37.49 -37.7,50.27 -15.63,11.23 -33.21,19.44 -51.07,26.43 -26.53,10.37 -54.18,18.23 -81.78,25.21 -22,5.56 -44.23,10.43 -66.39,14.9 -12.58,19.45 -26.71,44.58 -32.64,68.89 -4.38,17.97 -6.19,43.77 11.53,55.32 16.92,11.02 43.27,7.32 61.31,1.39 54.14,-17.8 110.05,-76.1 150.24,-125.21 31.02,-37.92 58.16,-78.75 89.73,-116.31 10.89,-12.96 22.24,-25.78 34.33,-37.63 12.31,-12.06 34.22,-32.23 52.65,-32.23 41.62,0 55.44,31.51 55.44,68.82 0,19.79 -6.41,41.4 -15.45,62.21 2.71,-2.37 5.44,-4.7 8.21,-6.99 13.71,-31.53 31.68,-61.44 55.42,-86.46 16.41,-17.45 39.89,-37.59 65.28,-37.59 15.97,0 27.29,8.17 27.29,24.93 0,15.38 -12.51,30.13 -22.84,40.33 -17.8,17.58 -40.58,33.21 -61.59,46.69l-0.04 0.02 -0.04 0.02c-12.51,7.86 -25.12,15.57 -37.7,23.32l-4.18 3.47c-3.54,12.12 -6.88,26.09 -6.88,38.5 0,10.98 1.44,27.42 11.07,34.66 4.51,3.39 10.25,4.39 15.77,4.39 18.16,0 36.07,-11.04 51.78,-25.39 4.3,-3.93 48.1,-45.07 67.84,-59.89l57.01 -103.66 -61.75 0 14.95 -27.41 63.02 0c45.78,-76.97 99.16,-149.6 161.83,-213.72l0.01 -0.01c31.78,-32.41 95.49,-94.15 144.49,-94.15 23.09,0 35.36,13.83 35.36,36.54 0,48.48 -43.86,101.8 -75.17,135.16 -48.47,51.82 -106.02,96.77 -165.45,136.19l83.89 0 -16.2 27.41 -100.03 0 -44.62 86.64c-25.83,50.42 -52.55,100.54 -81,149.54 -21.32,36.73 -43.82,73.39 -68.55,107.94 -41.33,57.74 -89.45,109.97 -143.94,155.48l-0.02 0.02c-59.13,49.09 -133.75,94.48 -213.09,94.48 -14.42,0 -52.09,0.15 -52.09,-21.58 0,-9.34 6.78,-15.08 15.88,-15.08 3.36,0 6.91,0.39 10.05,1.7 11.72,3.14 23.85,5.19 36.02,5.19 57.56,0 108.77,-30.47 150.68,-67.53l0.02 -0.02c32.43,-28.47 59.9,-61.7 82.9,-98.16l0.03 -0.06 0.04 -0.05c6.94,-10.68 13.48,-21.74 19.93,-32.73 10.28,-17.48 20.31,-35.12 30.28,-52.78 27.45,-48.64 54.35,-97.62 81.1,-146.65 -22.17,23.83 -52.38,48.2 -86.21,48.2 -37.65,0 -53.28,-24.73 -53.28,-60.16 0,-4.8 0.39,-9.73 1.05,-14.67 -13.55,12.73 -26.65,26.59 -35.87,41.46l-81.49 131.41 -92.9 0 103.52 -167.65c18.51,-29.98 37.19,-61.06 52.8,-92.66 4.93,-9.99 16.67,-34.29 16.67,-45.53 0,-1.18 -0.2,-5.43 -1.26,-6.3 -0.47,-0.39 -2,-0.46 -2.55,-0.46 -11.28,0 -31.64,20.59 -38.71,28.07 -11.34,12 -21.91,24.98 -31.99,38.04 -34.18,44.28 -62.51,88.97 -99.82,131.46 -39.69,45.2 -93.89,97.28 -149.66,114.54 -27.75,8.59 -58.21,8.39 -84.36,-5.42 -22.75,-12.02 -41.22,-33.57 -50.08,-57.66 -5.61,-15.26 -7.56,-32.09 -6.78,-48.7 -7.72,9.94 -15.6,19.75 -23.69,29.36 -14.06,16.69 -28.95,33.11 -45,47.92 -18.93,17.45 -47.46,40.13 -74.62,40.13 -20.54,0 -38.19,-7.6 -52.16,-22.7 -14.31,-15.48 -20.6,-34.49 -20.6,-55.38 0,-18.7 6.05,-38.58 14.21,-57.15l-0 0.01c-27.01,35 -60.66,69.63 -92.5,99 -18.92,17.45 -50.5,36.23 -77.65,36.23 -20.54,0 -38.19,-7.6 -52.16,-22.7 -14.31,-15.48 -20.6,-34.49 -20.6,-55.38 0,-14.49 3.62,-29.68 9.05,-44.42 -10.31,12.56 -20.79,24.98 -31.21,37.29zm668.45 -193.33c-29.72,25.32 -56.24,55.08 -80.03,86.32 39.32,-12.04 77.62,-28.61 111.62,-51.62 19.52,-13.21 53.56,-39.05 53.56,-65.66 0,-7.67 -3.31,-9.13 -10.7,-9.13 -24.37,0 -56.85,25.21 -74.45,40.1zm741.6 -252.21c-16.78,22.6 -32,47.54 -46.44,71.69 -15.66,26.2 -30.8,52.77 -45.65,79.48 49.39,-37.29 95.44,-78.66 137.75,-123.99 19.87,-21.37 75.83,-82.91 75.83,-114.09 0,-7.55 -2.17,-9.72 -9.72,-9.72 -37.22,0 -92.02,70.39 -111.78,96.64zm88.63 410.96c-8.29,10.75 -16.77,21.34 -25.48,31.72 -13.97,16.65 -28.73,33.04 -44.61,47.88 -18.11,16.94 -46.42,40.18 -72.67,40.18 -19.13,0 -35.4,-7.39 -47.73,-22.04 -12.95,-15.36 -18.15,-33.82 -18.15,-53.68 0,-23.02 5.53,-44.96 15.74,-65.58l0.02 -0.03c3.75,-7.5 7.89,-14.89 11.99,-22.2 6.77,-12.06 13.69,-24.05 20.66,-36 22.23,-38.16 44.93,-76.07 67.72,-113.9 59.86,-99.44 119.11,-199.47 175.84,-300.74l3.57 -6.38 97.6 -10.01 -14.08 23.44c-64.03,106.6 -128.05,213.21 -191.7,320.04 -19.38,32.53 -38.73,65.08 -57.94,97.71 -10.94,18.6 -21.95,37.24 -32.53,56.05l-0.01 0.02c-9.85,17.39 -38.94,69.23 -38.94,89.28 0,4.32 0.53,11.31 4.16,14.35 2.21,1.85 5.55,2.26 8.32,2.26 8.61,0 19.67,-6.24 30.32,-14.23 38.47,-28.86 66.43,-70.46 96.21,-107.42 20.62,-25.59 40.07,-49.74 62.46,-66.02l73.17 -123.62 94.5 -2.32 -122.63 199.36c-10.92,17.75 -47.04,76.8 -47.04,97.65 0,10.89 2.81,16.61 14.25,16.61 24.73,0 57.22,-35.11 71.89,-52.05 18.55,-21.42 35.48,-44.74 51.39,-68.16 21.22,-31.22 41.07,-63.49 60.17,-96.04l55.79 -95.05 93.56 -2.34 -9.31 14.8c-28.93,46.03 -56.68,92.94 -83.98,139.95 -31.74,54.65 -62.88,109.66 -93.71,164.84 31.34,-17.96 61.47,-38.47 88.58,-62.1 39.95,-35.08 80.07,-75.91 107.23,-118.38l18.49 10.25c-51.44,93.51 -146.61,163.74 -237.08,214.02l-27.04 48.45c-45.4,81.49 -103.76,167.09 -177.12,225.98 -45.67,36.76 -108.16,77.66 -169.07,77.66 -17.44,0 -33.2,-5.4 -45.84,-17.55 -12.54,-11.85 -18.86,-26.54 -18.86,-43.8 0,-50.18 34.36,-92.97 69.84,-124.88 25.86,-23.25 55.16,-43.48 84.8,-61.56 37.78,-23.04 77.51,-43.34 117.62,-61.98 21.55,-10.63 43.55,-20.61 65.49,-30.4l6.03 -3.57 40.07 -71.28c-3.94,4.3 -7.97,8.48 -12.08,12.41l-0.04 0.04c-16.91,15.99 -37.47,28.15 -61.37,28.15 -19.61,0 -35.67,-8.85 -48.42,-23.5 -13.22,-15.23 -19.82,-33.22 -19.82,-53.39 0,-12.77 3.96,-27.75 9.76,-42.89z"/>
 </g>
</svg>